<?xml version="1.0" encoding="UTF-8"?>
<svg xmlns="http://www.w3.org/2000/svg" xmlns:xlink="http://www.w3.org/1999/xlink" width="32pt" height="32pt" viewBox="0 0 32 32" version="1.1">
<g id="surface1">
<path style=" stroke:none;fill-rule:nonzero;fill:rgb(0%,0%,0%);fill-opacity:1;" d="M 29.144531 13.144531 L 19.429688 13.144531 C 19.113281 13.144531 18.855469 12.886719 18.855469 12.570312 L 18.855469 2.855469 C 18.855469 1.277344 17.578125 0 16 0 C 14.421875 0 13.144531 1.277344 13.144531 2.855469 L 13.144531 12.570312 C 13.144531 12.886719 12.886719 13.144531 12.570312 13.144531 L 2.855469 13.144531 C 1.277344 13.144531 0 14.421875 0 16 C 0 17.578125 1.277344 18.855469 2.855469 18.855469 L 12.570312 18.855469 C 12.886719 18.855469 13.144531 19.113281 13.144531 19.429688 L 13.144531 29.144531 C 13.144531 30.722656 14.421875 32 16 32 C 17.578125 32 18.855469 30.722656 18.855469 29.144531 L 18.855469 19.429688 C 18.855469 19.113281 19.113281 18.855469 19.429688 18.855469 L 29.144531 18.855469 C 30.722656 18.855469 32 17.578125 32 16 C 32 14.421875 30.722656 13.144531 29.144531 13.144531 Z M 29.144531 13.144531 "/>
</g>
</svg>
