<?xml version="1.0" encoding="UTF-8"?>
<svg xmlns="http://www.w3.org/2000/svg" xmlns:xlink="http://www.w3.org/1999/xlink" width="32pt" height="32pt" viewBox="0 0 32 32" version="1.1">
<g id="surface1">
<path style=" stroke:none;fill-rule:nonzero;fill:rgb(0%,0%,0%);fill-opacity:1;" d="M 25.332031 16.0625 C 24.597656 16.0625 24 16.660156 24 17.394531 L 24 28.0625 C 24 28.796875 23.402344 29.394531 22.667969 29.394531 L 4 29.394531 C 3.265625 29.394531 2.667969 28.796875 2.667969 28.0625 L 2.667969 9.394531 C 2.667969 8.660156 3.265625 8.0625 4 8.0625 L 14.667969 8.0625 C 15.402344 8.0625 16 7.464844 16 6.726562 C 16 5.992188 15.402344 5.394531 14.667969 5.394531 L 4 5.394531 C 1.792969 5.394531 0 7.1875 0 9.394531 L 0 28.0625 C 0 30.265625 1.792969 32.0625 4 32.0625 L 22.667969 32.0625 C 24.871094 32.0625 26.667969 30.265625 26.667969 28.0625 L 26.667969 17.394531 C 26.667969 16.65625 26.070312 16.0625 25.332031 16.0625 Z M 25.332031 16.0625 "/>
<path style=" stroke:none;fill-rule:nonzero;fill:rgb(0%,0%,0%);fill-opacity:1;" d="M 12.5 14.847656 C 12.40625 14.941406 12.34375 15.058594 12.320312 15.1875 L 11.375 19.902344 C 11.332031 20.121094 11.402344 20.34375 11.558594 20.503906 C 11.683594 20.632812 11.855469 20.699219 12.03125 20.699219 C 12.074219 20.699219 12.117188 20.695312 12.160156 20.6875 L 16.875 19.742188 C 17.003906 19.714844 17.125 19.652344 17.214844 19.558594 L 27.765625 9.011719 L 23.050781 4.296875 Z M 12.5 14.847656 "/>
<path style=" stroke:none;fill-rule:nonzero;fill:rgb(0%,0%,0%);fill-opacity:1;" d="M 31.023438 1.039062 C 29.722656 -0.261719 27.609375 -0.261719 26.3125 1.039062 L 24.464844 2.882812 L 29.179688 7.597656 L 31.023438 5.75 C 31.652344 5.121094 32 4.285156 32 3.394531 C 32 2.503906 31.652344 1.667969 31.023438 1.039062 Z M 31.023438 1.039062 "/>
</g>
</svg>
