<?xml version="1.0" encoding="UTF-8"?>
<svg xmlns="http://www.w3.org/2000/svg" xmlns:xlink="http://www.w3.org/1999/xlink" width="32pt" height="32pt" viewBox="0 0 32 32" version="1.1">
<g id="surface1">
<path style=" stroke:none;fill-rule:nonzero;fill:rgb(0%,0%,0%);fill-opacity:1;" d="M 22 18.0625 L 22 26 L 4 26 L 4 8 L 10 8 L 10 4 L 2 4 C 0.894531 4 0 4.894531 0 6 L 0 28 C 0 29.105469 0.894531 30 2 30 L 24 30 C 25.105469 30 26 29.105469 26 28 L 26 18.0625 Z M 22 18.0625 "/>
<path style=" stroke:none;fill-rule:nonzero;fill:rgb(0%,0%,0%);fill-opacity:1;" d="M 31.601562 8.199219 L 23.601562 2.199219 C 23.300781 1.972656 22.890625 1.9375 22.554688 2.105469 C 22.214844 2.277344 22 2.621094 22 3 L 22 6 L 19 6 C 12.933594 6 8 10.933594 8 17 C 8 17.464844 8.320312 17.867188 8.769531 17.972656 C 8.847656 17.992188 8.925781 18 9 18 C 9.371094 18 9.722656 17.792969 9.894531 17.449219 L 10.128906 16.976562 C 11.664062 13.90625 14.746094 12 18.179688 12 L 22 12 L 22 15 C 22 15.378906 22.214844 15.722656 22.550781 15.894531 C 22.890625 16.0625 23.296875 16.027344 23.601562 15.800781 L 31.601562 9.800781 C 31.851562 9.613281 32 9.3125 32 9 C 32 8.6875 31.851562 8.386719 31.601562 8.199219 Z M 31.601562 8.199219 "/>
</g>
</svg>
