<?xml version="1.0" encoding="UTF-8"?>
<svg xmlns="http://www.w3.org/2000/svg" xmlns:xlink="http://www.w3.org/1999/xlink" width="32pt" height="32pt" viewBox="0 0 32 32" version="1.1">
<g id="surface1">
<path style=" stroke:none;fill-rule:nonzero;fill:rgb(0%,0%,0%);fill-opacity:1;" d="M 25.226562 5.359375 L 8.722656 5.359375 C 8.210938 5.359375 7.796875 4.945312 7.796875 4.433594 L 7.796875 3.96875 C 7.796875 3.449219 7.371094 3.023438 6.851562 3.023438 L 1.886719 3.023438 C 0.84375 3.023438 0 3.871094 0 4.914062 L 0 20.796875 L 2.421875 9.011719 C 2.511719 8.582031 2.890625 8.273438 3.328125 8.273438 L 27.113281 8.273438 L 27.113281 7.246094 C 27.113281 6.203125 26.269531 5.359375 25.226562 5.359375 Z M 25.226562 5.359375 "/>
<path style=" stroke:none;fill-rule:nonzero;fill:rgb(0%,0%,0%);fill-opacity:1;" d="M 30.113281 10.125 L 4.085938 10.125 L 0.441406 27.847656 C 0.320312 28.429688 0.765625 28.976562 1.359375 28.976562 L 28.445312 28.976562 C 29.40625 28.976562 30.214844 28.25 30.320312 27.292969 L 31.988281 12.222656 C 32.113281 11.101562 31.238281 10.125 30.113281 10.125 Z M 30.113281 10.125 "/>
</g>
</svg>
