<?xml version="1.0" encoding="UTF-8"?>
<svg xmlns="http://www.w3.org/2000/svg" xmlns:xlink="http://www.w3.org/1999/xlink" width="32pt" height="32pt" viewBox="0 0 32 32" version="1.1">
<g id="surface1">
<path style=" stroke:none;fill-rule:nonzero;fill:rgb(0%,0%,0%);fill-opacity:1;" d="M 30.652344 23.15625 C 30.367188 22.804688 29.886719 22.671875 29.464844 22.824219 C 28.28125 23.25 26.996094 23.464844 25.644531 23.464844 C 19.171875 23.464844 13.910156 18.203125 13.910156 11.734375 C 13.910156 7.839844 15.832031 4.214844 19.050781 2.035156 C 19.414062 1.789062 19.589844 1.34375 19.492188 0.914062 C 19.394531 0.484375 19.042969 0.160156 18.605469 0.0976562 C 18.105469 0.0234375 17.609375 0 17.109375 0 C 8.285156 0 1.109375 7.175781 1.109375 16 C 1.109375 24.824219 8.285156 32 17.109375 32 C 22.710938 32 27.804688 29.152344 30.734375 24.386719 C 30.96875 24.003906 30.9375 23.507812 30.652344 23.15625 Z M 30.652344 23.15625 "/>
</g>
</svg>
