<?xml version="1.0" encoding="UTF-8"?>
<svg xmlns="http://www.w3.org/2000/svg" xmlns:xlink="http://www.w3.org/1999/xlink" width="32pt" height="32pt" viewBox="0 0 32 32" version="1.1">
<g id="surface1">
<path style=" stroke:none;fill-rule:nonzero;fill:rgb(0%,0%,0%);fill-opacity:1;" d="M 31.945312 17.890625 C 31.378906 12.179688 26.238281 8 20.5 8 L 12 8 L 12 3 C 12 2.617188 11.78125 2.265625 11.433594 2.097656 C 11.085938 1.933594 10.675781 1.976562 10.375 2.21875 L 0.375 10.21875 C 0.136719 10.410156 0 10.695312 0 11 C 0 11.304688 0.136719 11.589844 0.375 11.78125 L 10.375 19.78125 C 10.554688 19.925781 10.777344 20 11 20 C 11.148438 20 11.296875 19.96875 11.433594 19.902344 C 11.78125 19.734375 12 19.382812 12 19 L 12 14 L 20.710938 14 C 23.328125 14 25.710938 15.878906 25.972656 18.484375 C 26.277344 21.472656 23.929688 24 21 24 L 13 24 C 12.449219 24 12 24.449219 12 25 L 12 29 C 12 29.550781 12.449219 30 13 30 L 21 30 C 27.425781 30 32.589844 24.445312 31.945312 17.890625 Z M 31.945312 17.890625 "/>
</g>
</svg>
