<?xml version="1.0" encoding="UTF-8"?>
<svg xmlns="http://www.w3.org/2000/svg" xmlns:xlink="http://www.w3.org/1999/xlink" width="24pt" height="24pt" viewBox="0 0 24 24" version="1.1">
<g id="surface1">
<path style=" stroke:none;fill-rule:nonzero;fill:rgb(0%,0%,0%);fill-opacity:1;" d="M 10 1.449219 L 14.011719 1.449219 L 14.011719 2.125 L 15.460938 2.125 L 15.460938 1.355469 C 15.460938 0.609375 14.855469 0 14.109375 0 L 9.90625 0 C 9.160156 0 8.554688 0.609375 8.554688 1.355469 L 8.554688 2.125 L 10 2.125 Z M 10 1.449219 "/>
<path style=" stroke:none;fill-rule:nonzero;fill:rgb(0%,0%,0%);fill-opacity:1;" d="M 18.808594 7.863281 L 5.207031 7.863281 C 4.835938 7.863281 4.542969 8.179688 4.570312 8.550781 L 5.707031 22.609375 C 5.773438 23.394531 6.425781 24 7.214844 24 L 16.800781 24 C 17.585938 24 18.242188 23.394531 18.304688 22.609375 L 19.441406 8.550781 C 19.472656 8.179688 19.179688 7.863281 18.808594 7.863281 Z M 8.5 22.5 C 8.484375 22.5 8.46875 22.503906 8.457031 22.503906 C 8.074219 22.503906 7.757812 22.207031 7.734375 21.820312 L 7.019531 10.28125 C 6.996094 9.882812 7.300781 9.539062 7.699219 9.511719 C 8.097656 9.488281 8.441406 9.792969 8.464844 10.191406 L 9.179688 21.734375 C 9.203125 22.132812 8.898438 22.476562 8.5 22.5 Z M 12.738281 21.777344 C 12.738281 22.175781 12.414062 22.5 12.015625 22.5 C 11.617188 22.5 11.289062 22.175781 11.289062 21.777344 L 11.289062 10.238281 C 11.289062 9.835938 11.617188 9.511719 12.015625 9.511719 C 12.414062 9.511719 12.738281 9.835938 12.738281 10.238281 Z M 16.992188 10.277344 L 16.3125 21.820312 C 16.292969 22.203125 15.972656 22.5 15.589844 22.5 C 15.578125 22.5 15.5625 22.5 15.546875 22.5 C 15.148438 22.476562 14.84375 22.132812 14.867188 21.734375 L 15.546875 10.195312 C 15.570312 9.792969 15.914062 9.488281 16.3125 9.511719 C 16.710938 9.535156 17.015625 9.878906 16.992188 10.277344 Z M 16.992188 10.277344 "/>
<path style=" stroke:none;fill-rule:nonzero;fill:rgb(0%,0%,0%);fill-opacity:1;" d="M 21.3125 5.628906 L 20.835938 4.203125 C 20.710938 3.824219 20.359375 3.574219 19.960938 3.574219 L 4.050781 3.574219 C 3.65625 3.574219 3.304688 3.824219 3.179688 4.203125 L 2.703125 5.628906 C 2.609375 5.902344 2.730469 6.183594 2.953125 6.324219 C 3.042969 6.378906 3.152344 6.414062 3.269531 6.414062 L 20.746094 6.414062 C 20.863281 6.414062 20.96875 6.378906 21.0625 6.324219 C 21.285156 6.183594 21.402344 5.902344 21.3125 5.628906 Z M 21.3125 5.628906 "/>
</g>
</svg>
