<?xml version="1.0" encoding="UTF-8"?>
<svg xmlns="http://www.w3.org/2000/svg" xmlns:xlink="http://www.w3.org/1999/xlink" width="24pt" height="24pt" viewBox="0 0 24 24" version="1.1">
<g id="surface1">
<path style=" stroke:none;fill-rule:nonzero;fill:rgb(0%,0%,0%);fill-opacity:1;" d="M 18.984375 10.609375 L 8.945312 0.585938 C 8.578125 0.195312 8.113281 0 7.5625 0 C 7.007812 0 6.542969 0.195312 6.175781 0.585938 L 5.003906 1.738281 C 4.625 2.121094 4.433594 2.582031 4.433594 3.125 C 4.433594 3.660156 4.625 4.125 5.003906 4.527344 L 12.488281 11.996094 L 5.003906 19.480469 C 4.625 19.859375 4.433594 20.320312 4.433594 20.863281 C 4.433594 21.398438 4.625 21.867188 5.003906 22.265625 L 6.175781 23.421875 C 6.554688 23.800781 7.015625 23.988281 7.558594 23.988281 C 8.105469 23.988281 8.566406 23.800781 8.945312 23.421875 L 18.984375 13.394531 C 19.367188 12.996094 19.554688 12.527344 19.554688 11.996094 C 19.554688 11.449219 19.367188 10.988281 18.984375 10.609375 Z M 18.984375 10.609375 "/>
</g>
</svg>
