<?xml version="1.0" encoding="UTF-8"?>
<svg xmlns="http://www.w3.org/2000/svg" xmlns:xlink="http://www.w3.org/1999/xlink" width="24pt" height="24pt" viewBox="0 0 24 24" version="1.1">
<g id="surface1">
<path style=" stroke:none;fill-rule:nonzero;fill:rgb(0%,0%,0%);fill-opacity:1;" d="M 23.886719 18.097656 C 23.800781 18.011719 23.6875 17.96875 23.554688 17.96875 L 9.585938 17.96875 C 9.453125 17.96875 9.339844 18.011719 9.253906 18.097656 C 9.164062 18.183594 9.121094 18.296875 9.121094 18.433594 L 9.121094 19.363281 C 9.121094 19.5 9.164062 19.609375 9.253906 19.699219 C 9.339844 19.785156 9.453125 19.828125 9.585938 19.828125 L 23.554688 19.828125 C 23.6875 19.828125 23.800781 19.785156 23.886719 19.699219 C 23.976562 19.609375 24.019531 19.5 24.019531 19.363281 L 24.019531 18.433594 C 24.019531 18.296875 23.976562 18.183594 23.886719 18.097656 Z M 23.886719 18.097656 "/>
<path style=" stroke:none;fill-rule:nonzero;fill:rgb(0%,0%,0%);fill-opacity:1;" d="M 1.542969 4.335938 C 1.445312 4.238281 1.332031 4.191406 1.207031 4.191406 C 1.082031 4.191406 0.96875 4.238281 0.871094 4.335938 L 0.144531 5.0625 C 0.046875 5.160156 0 5.269531 0 5.398438 C 0 5.523438 0.046875 5.632812 0.144531 5.730469 L 5.863281 11.449219 L 0.144531 17.167969 C 0.046875 17.261719 0 17.375 0 17.5 C 0 17.628906 0.046875 17.738281 0.144531 17.835938 L 0.871094 18.5625 C 0.96875 18.660156 1.082031 18.707031 1.207031 18.707031 C 1.332031 18.707031 1.445312 18.660156 1.542969 18.5625 L 8.320312 11.785156 C 8.417969 11.6875 8.464844 11.574219 8.464844 11.449219 C 8.464844 11.324219 8.417969 11.210938 8.320312 11.113281 Z M 1.542969 4.335938 "/>
</g>
</svg>
